<svg xmlns="http://www.w3.org/2000/svg" viewBox="0 0 450 420"><defs><style>.cls-1{isolation:isolate;}.cls-19,.cls-2,.cls-20,.cls-22,.cls-24,.cls-29{fill:#cceaff;}.cls-14,.cls-15,.cls-16,.cls-17,.cls-18,.cls-26,.cls-27,.cls-3,.cls-32,.cls-34,.cls-35,.cls-4,.cls-5,.cls-8{fill:none;}.cls-20,.cls-3,.cls-34,.cls-6{stroke:#4c8dbd;}.cls-12,.cls-14,.cls-15,.cls-16,.cls-17,.cls-18,.cls-20,.cls-26,.cls-27,.cls-28,.cls-3,.cls-4,.cls-5,.cls-6,.cls-7,.cls-8{stroke-miterlimit:10;}.cls-12,.cls-14,.cls-20,.cls-3,.cls-30,.cls-32,.cls-34,.cls-4,.cls-5,.cls-6,.cls-7,.cls-8{stroke-width:0.75px;}.cls-15,.cls-16,.cls-17,.cls-18,.cls-28,.cls-4{stroke:#cceaff;}.cls-12,.cls-5{stroke:#ccc;}.cls-12,.cls-25,.cls-28,.cls-30,.cls-6,.cls-7{fill:#fff;}.cls-35,.cls-7,.cls-8{stroke:#f48024;}.cls-9{fill:#f48024;}.cls-10{opacity:0.59;}.cls-10,.cls-19,.cls-22,.cls-29,.cls-33{mix-blend-mode:multiply;}.cls-11{opacity:0.64;}.cls-13{fill:#2b9da3;}.cls-14{stroke:#fff;}.cls-15{stroke-width:7.98px;}.cls-15,.cls-16,.cls-17,.cls-18{opacity:0.68;}.cls-16{stroke-width:5.79px;}.cls-17{stroke-width:5.42px;}.cls-18{stroke-width:3.26px;}.cls-19{opacity:0.53;}.cls-21{fill:#34637f;}.cls-22{opacity:0.3;}.cls-23{fill:#4c8dbd;}.cls-24{opacity:0.47;}.cls-26,.cls-27{stroke:#fafeff;}.cls-26{stroke-width:5px;}.cls-27,.cls-28{stroke-width:6px;}.cls-29{opacity:0.54;}.cls-30,.cls-32{stroke:#65bb5c;}.cls-30,.cls-32,.cls-34,.cls-35{stroke-linecap:round;stroke-linejoin:round;}.cls-31{fill:#dcf0da;}.cls-33{opacity:0.35;}.cls-35{stroke-width:1.5px;}</style></defs><title>Home Page Illustrations</title><g class="cls-1"><g id="Layer_1" data-name="Layer 1"><path class="cls-2" d="M93.61,133a4.22,4.22,0,0,0-2,.34,9.38,9.38,0,0,0,.33-3,15.37,15.37,0,1,0-30.75,0v.34a9.78,9.78,0,0,0-3.34-.67,8.08,8.08,0,0,0,0,16.17H93.61a6.37,6.37,0,0,0,6.35-6.4A6.67,6.67,0,0,0,93.61,133"/><path class="cls-3" d="M88.52,129.71a4.22,4.22,0,0,0-2,.34,9.38,9.38,0,0,0,.33-3,15.37,15.37,0,1,0-30.75,0v.34a9.78,9.78,0,0,0-3.34-.67,8.08,8.08,0,0,0,0,16.17H88.52a6.37,6.37,0,0,0,6.35-6.4,6.67,6.67,0,0,0-6.35-6.74"/><path class="cls-4" d="M321.7,107.34h0v-.71A27.69,27.69,0,0,1,349.5,78.71,28.1,28.1,0,0,1,376.24,98.5a15.69,15.69,0,0,1,7-1.41,16.41,16.41,0,0,1,16.18,16.26,18,18,0,0,1-1.06,6h.7a10.6,10.6,0,0,1,0,21.21h-77a16.41,16.41,0,0,1-16.18-16.26c-.35-9.9,6.68-17,15.83-17"/><rect class="cls-2" x="224.67" y="159.46" width="48.19" height="72.19"/><polyline class="cls-5" points="336.53 340.09 336.53 221.12 358.46 221.12 358.46 341.89"/><rect class="cls-6" x="259.92" y="200.89" width="76.88" height="90.17"/><path class="cls-7" d="M315.91,166.64H122.25v-105H315.91Z"/><rect class="cls-8" x="129.86" y="69.24" width="178.45" height="89.8"/><rect class="cls-9" x="154.11" y="51.57" width="2.7" height="14.27"/><rect class="cls-9" x="217.74" y="51.57" width="2.7" height="14.27"/><rect class="cls-9" x="281.2" y="51.57" width="2.7" height="14.27"/><path class="cls-9" d="M161.52,56.54a6.11,6.11,0,0,0-12.22,0Z"/><path class="cls-9" d="M225.19,56.54a6.11,6.11,0,0,0-12.22,0Z"/><path class="cls-9" d="M288.45,56.54a6.11,6.11,0,0,0-12.22,0Z"/><g class="cls-10"><polygon class="cls-2" points="213.69 74.35 217.87 66.23 220.5 66.23 216.33 74.35 213.69 74.35"/><path class="cls-2" d="M217.85,77.27c-.91,1.76-3.59,3.19-6,3.19s-3.61-1.43-2.7-3.19,3.59-3.19,6-3.19S218.76,75.5,217.85,77.27Z"/></g><g class="cls-10"><polygon class="cls-2" points="150.07 74.35 154.25 66.23 156.88 66.23 152.71 74.35 150.07 74.35"/><path class="cls-2" d="M154.23,77.27c-.91,1.76-3.59,3.19-6,3.19s-3.61-1.43-2.7-3.19,3.59-3.19,6-3.19S155.14,75.5,154.23,77.27Z"/></g><g class="cls-10"><polygon class="cls-2" points="277.6 74.35 281.77 66.23 284.41 66.23 280.23 74.35 277.6 74.35"/><path class="cls-2" d="M281.76,77.27c-.91,1.76-3.59,3.19-6,3.19s-3.61-1.43-2.7-3.19,3.59-3.19,6-3.19S282.67,75.5,281.76,77.27Z"/></g><g class="cls-11"><rect class="cls-2" x="130.26" y="69.84" width="177.28" height="4.77"/></g><rect class="cls-12" x="152.06" y="190.77" width="62.16" height="41.73"/><rect class="cls-13" x="155.74" y="215.98" width="16.94" height="19.28"/><rect class="cls-13" x="193.6" y="298.84" width="16.94" height="19.28"/><rect class="cls-13" x="155.74" y="236.86" width="16.94" height="19.28"/><rect class="cls-13" x="155.74" y="257.68" width="16.94" height="19.28"/><rect class="cls-13" x="155.74" y="278.02" width="16.94" height="19.28"/><rect class="cls-12" x="150.64" y="185.47" width="64.78" height="5.72"/><line class="cls-14" x1="224.66" y1="210.92" x2="236.77" y2="210.92"/><line class="cls-14" x1="241.51" y1="217.63" x2="265.99" y2="217.63"/><line class="cls-15" x1="224.66" y1="223.96" x2="238.35" y2="223.96"/><line class="cls-14" x1="224.66" y1="178.95" x2="236.77" y2="178.95"/><line class="cls-15" x1="240.72" y1="295.11" x2="260.45" y2="295.11"/><line class="cls-14" x1="230.97" y1="191.98" x2="239.92" y2="191.98"/><line class="cls-15" x1="230.97" y1="321.23" x2="241.49" y2="321.23"/><line class="cls-14" x1="240.31" y1="210.92" x2="252.42" y2="210.92"/><line class="cls-14" x1="247.93" y1="172.24" x2="258.81" y2="172.24"/><line class="cls-15" x1="234.24" y1="223.96" x2="247.93" y2="223.96"/><line class="cls-14" x1="234.24" y1="185.28" x2="255.03" y2="185.28"/><line class="cls-14" x1="237.44" y1="198.31" x2="264.51" y2="198.31"/><line class="cls-14" x1="254.24" y1="205.02" x2="270.82" y2="205.02"/><line class="cls-15" x1="240.54" y1="321.23" x2="251.07" y2="321.23"/><polyline class="cls-12" points="107.23 235.26 84.12 235.26 84.12 341.37"/><line class="cls-16" x1="116.46" y1="242.81" x2="97.2" y2="242.81"/><line class="cls-16" x1="127.01" y1="274" x2="116.46" y2="274"/><line class="cls-16" x1="112.33" y1="286.8" x2="91.01" y2="286.8"/><line class="cls-16" x1="127.01" y1="246.85" x2="112.33" y2="246.85"/><line class="cls-16" x1="127.01" y1="281.86" x2="115.08" y2="281.86"/><line class="cls-16" x1="116.46" y1="314.3" x2="96.26" y2="314.3"/><line class="cls-16" x1="127.01" y1="254.71" x2="116.46" y2="254.71"/><line class="cls-16" x1="108.9" y1="319.8" x2="102.7" y2="319.8"/><line class="cls-16" x1="127.01" y1="258.53" x2="108.9" y2="258.53"/><line class="cls-16" x1="119.21" y1="293.77" x2="113.02" y2="293.77"/><line class="cls-16" x1="121.52" y1="264.8" x2="113.72" y2="264.8"/><line class="cls-16" x1="103.92" y1="303.3" x2="88.29" y2="303.3"/><line class="cls-16" x1="127.01" y1="270.3" x2="100.64" y2="270.3"/><line class="cls-16" x1="98.41" y1="308.8" x2="88.3" y2="308.8"/><line class="cls-16" x1="109.58" y1="281.3" x2="95.14" y2="281.3"/><line class="cls-16" x1="117.84" y1="301.63" x2="109.58" y2="301.63"/><line class="cls-16" x1="108.12" y1="242.81" x2="88.86" y2="242.81"/><line class="cls-16" x1="118.67" y1="274" x2="108.12" y2="274"/><line class="cls-16" x1="118.67" y1="248.31" x2="103.99" y2="248.31"/><line class="cls-16" x1="100.54" y1="292.3" x2="88.01" y2="292.3"/><line class="cls-16" x1="118.67" y1="297.8" x2="106.74" y2="297.8"/><line class="cls-16" x1="118.67" y1="253.81" x2="108.12" y2="253.81"/><line class="cls-16" x1="97.83" y1="330.79" x2="89.57" y2="330.79"/><line class="cls-16" x1="118.67" y1="259.3" x2="100.55" y2="259.3"/><line class="cls-16" x1="104.68" y1="325.29" x2="87.49" y2="325.29"/><line class="cls-16" x1="118.67" y1="275.8" x2="92.3" y2="275.8"/><line class="cls-17" x1="344.75" y1="228.72" x2="352.25" y2="228.72"/><line class="cls-17" x1="337.18" y1="270.09" x2="353.79" y2="270.09"/><line class="cls-17" x1="337.43" y1="234.17" x2="347.97" y2="234.17"/><line class="cls-17" x1="337.43" y1="243.02" x2="344.75" y2="243.02"/><line class="cls-17" x1="346.63" y1="330.79" x2="357.56" y2="330.79"/><line class="cls-17" x1="339.85" y1="317.42" x2="344.68" y2="317.42"/><line class="cls-17" x1="337.43" y1="249.85" x2="342.55" y2="249.85"/><line class="cls-17" x1="337.44" y1="290.32" x2="349.61" y2="290.32"/><line class="cls-17" x1="337.43" y1="254.91" x2="354.38" y2="254.91"/><line class="cls-17" x1="341.73" y1="295.38" x2="349.61" y2="295.38"/><line class="cls-17" x1="350.87" y1="300.44" x2="357.86" y2="300.44"/><line class="cls-17" x1="343.03" y1="265.03" x2="351.25" y2="265.03"/><line class="cls-17" x1="343.03" y1="235.57" x2="354.47" y2="235.57"/><line class="cls-17" x1="346.37" y1="275.15" x2="356.13" y2="275.15"/><line class="cls-17" x1="343.03" y1="280.21" x2="352.32" y2="280.21"/><line class="cls-17" x1="340.46" y1="310.56" x2="352.79" y2="310.56"/><line class="cls-17" x1="343.03" y1="244.79" x2="351.25" y2="244.79"/><line class="cls-17" x1="340.64" y1="325.74" x2="353.07" y2="325.74"/><line class="cls-17" x1="349.11" y1="285.26" x2="353.93" y2="285.26"/><line class="cls-17" x1="349.77" y1="259.97" x2="357.49" y2="259.97"/><line class="cls-17" x1="337.35" y1="305.5" x2="345.82" y2="305.5"/><line class="cls-18" x1="337.16" y1="223.16" x2="357.82" y2="223.16"/><rect class="cls-19" x="259.92" y="201.79" width="76.88" height="6.05"/><rect class="cls-6" x="257.92" y="198.19" width="80.78" height="6.84"/><path class="cls-6" d="M285.16,342.06V302.89h26.36v39.17m-20.46-1.4h14.56V308.79H291.06Z"/><rect class="cls-20" x="284.05" y="299.34" width="28.51" height="3.8"/><rect class="cls-21" x="213.96" y="166.37" width="18.07" height="65.87"/><rect class="cls-22" x="201.96" y="185.46" width="26.75" height="46.66"/><rect class="cls-23" x="213.96" y="172.42" width="18.07" height="58.93"/><rect class="cls-3" x="186.15" y="228.02" width="73.84" height="85.73"/><rect class="cls-24" x="186.15" y="232.02" width="72.94" height="2.14"/><polyline class="cls-6" points="186.21 342.06 186.21 288.85 259.92 288.85 259.92 342.06"/><rect class="cls-2" x="186.31" y="290.18" width="73.84" height="11.16"/><rect class="cls-6" x="186.15" y="286.43" width="73.84" height="4.71"/><rect class="cls-22" x="186.31" y="302.04" width="73.84" height="4.71"/><rect class="cls-6" x="186.31" y="298.86" width="73.84" height="4.71"/><path class="cls-6" d="M208.34,335H191.81v-26.4h16.53Z"/><rect class="cls-2" x="193.71" y="310.47" width="12.73" height="22.59"/><rect class="cls-25" x="198.18" y="310.48" width="3.8" height="22.58"/><path class="cls-6" d="M254.68,335H238.15v-26.4h16.53Z"/><rect class="cls-2" x="240.05" y="310.47" width="12.73" height="22.59"/><rect class="cls-25" x="244.51" y="310.48" width="3.8" height="22.58"/><rect class="cls-2" x="260.82" y="337.82" width="75.89" height="4.4"/><polyline class="cls-5" points="107.39 342.01 107.39 288.44 186.15 288.44 186.15 342.01"/><rect class="cls-12" x="107.39" y="203.58" width="78.75" height="84.86"/><rect class="cls-23" x="129.9" y="296.46" width="34.09" height="34.75"/><rect class="cls-2" x="107.92" y="337.82" width="77.71" height="4.45"/><line class="cls-26" x1="146.77" y1="331.74" x2="146.77" y2="296.78"/><rect class="cls-27" x="129.9" y="296.78" width="34.09" height="34.41"/><rect class="cls-25" x="191.14" y="295.12" width="0.01" height="0.01"/><rect class="cls-25" x="200.27" y="295.12" width="0.01" height="0.01"/><rect class="cls-25" x="209.4" y="295.12" width="0.01" height="0.01"/><rect class="cls-25" x="218.53" y="295.12" width="0.01" height="0.01"/><rect class="cls-25" x="227.67" y="295.12" width="0.01" height="0.01"/><rect class="cls-25" x="236.8" y="295.12" width="0.01" height="0.01"/><rect class="cls-25" x="245.93" y="295.12" width="0.01" height="0.01"/><rect class="cls-25" x="255.06" y="295.12" width="0.01" height="0.01"/><line class="cls-3" x1="129.9" y1="331.38" x2="163.99" y2="331.38"/><rect class="cls-2" x="186.69" y="337.82" width="72.81" height="4.45"/><path class="cls-28" d="M232.62,341v-22.2a8,8,0,0,0-8-8h-2.67a8,8,0,0,0-8,8V341"/><rect class="cls-2" x="284.56" y="335.03" width="27.57" height="2.31"/><rect class="cls-6" x="282.65" y="337.34" width="31.39" height="2.31"/><rect class="cls-2" x="280.34" y="340.01" width="36" height="2.31"/><line class="cls-3" x1="133.83" y1="209.41" x2="133.83" y2="288.11"/><line class="cls-3" x1="160.07" y1="209.41" x2="160.07" y2="288.11"/><polygon class="cls-6" points="248.28 217.94 248.28 221.59 235.69 221.59 235.69 217.5 228.92 217.5 228.92 213.85 217.21 213.85 217.21 217.5 210.44 217.5 210.44 221.59 197.86 221.59 197.86 217.5 186.15 217.5 186.15 221.59 186.15 224.81 186.15 232.12 259.99 232.12 259.99 225.24 259.99 221.59 259.99 217.94 248.28 217.94"/><path class="cls-9" d="M223.23,222.62a5.83,5.83,0,0,0-5.57,6.05H228.8A5.83,5.83,0,0,0,223.23,222.62Z"/><polyline class="cls-6" points="33.7 342.01 33.7 341.83 416.41 341.83 416.41 342.01"/><path class="cls-6" d="M125.56,218H114.39v15.49h11.17V218Z"/><rect class="cls-2" x="116.11" y="220.12" width="7.76" height="11.05"/><rect class="cls-29" x="112.38" y="216.13" width="15.18" height="3.46"/><path class="cls-6" d="M120,213.69l-7.15,2v2.49h14.29v-2.49Z"/><polygon class="cls-2" points="126.16 236.86 113.78 236.86 113.25 235.31 126.7 235.31 126.16 236.86"/><rect class="cls-6" x="112.82" y="232.78" width="14.29" height="2.53"/><path class="cls-6" d="M152.49,218H141.32v15.49h11.17V218Z"/><rect class="cls-2" x="143.04" y="220.12" width="7.76" height="11.05"/><rect class="cls-29" x="139.31" y="216.13" width="15.18" height="3.46"/><path class="cls-6" d="M146.9,213.69l-7.15,2v2.49h14.29v-2.49Z"/><polygon class="cls-2" points="153.1 236.86 140.71 236.86 140.18 235.31 153.63 235.31 153.1 236.86"/><rect class="cls-6" x="139.76" y="232.78" width="14.29" height="2.53"/><path class="cls-6" d="M179.42,218H168.25v15.49h11.17V218Z"/><rect class="cls-2" x="169.97" y="220.12" width="7.76" height="11.05"/><rect class="cls-29" x="166.25" y="216.13" width="15.18" height="3.46"/><path class="cls-6" d="M173.84,213.69l-7.15,2v2.49H181v-2.49Z"/><polygon class="cls-2" points="180.03 236.86 167.64 236.86 167.11 235.31 180.56 235.31 180.03 236.86"/><rect class="cls-6" x="166.69" y="232.78" width="14.29" height="2.53"/><path class="cls-6" d="M125.56,241H114.39V256.5h11.17V241Z"/><rect class="cls-2" x="116.11" y="243.09" width="7.76" height="11.05"/><polygon class="cls-2" points="126.16 259.83 113.78 259.83 113.25 258.29 126.7 258.29 126.16 259.83"/><rect class="cls-6" x="112.82" y="255.75" width="14.29" height="2.53"/><path class="cls-6" d="M152.49,241H141.32V256.5h11.17V241Z"/><rect class="cls-2" x="143.04" y="243.09" width="7.76" height="11.05"/><polygon class="cls-2" points="153.1 259.83 140.72 259.83 140.18 258.29 153.63 258.29 153.1 259.83"/><rect class="cls-6" x="139.76" y="255.75" width="14.29" height="2.53"/><path class="cls-6" d="M179.42,241H168.25V256.5h11.17V241Z"/><rect class="cls-2" x="169.97" y="243.09" width="7.76" height="11.05"/><polygon class="cls-2" points="180.03 259.83 167.65 259.83 167.11 258.29 180.56 258.29 180.03 259.83"/><rect class="cls-6" x="166.69" y="255.75" width="14.29" height="2.53"/><path class="cls-6" d="M125.56,263.67H114.39v15.49h11.17V263.67Z"/><rect class="cls-2" x="116.11" y="265.75" width="7.76" height="11.05"/><polygon class="cls-2" points="126.16 282.49 113.78 282.49 113.25 280.94 126.7 280.94 126.16 282.49"/><rect class="cls-6" x="112.82" y="278.41" width="14.29" height="2.53"/><path class="cls-6" d="M152.49,263.67H141.32v15.49h11.17V263.67Z"/><rect class="cls-2" x="143.04" y="265.75" width="7.76" height="11.05"/><polygon class="cls-2" points="153.1 282.49 140.72 282.49 140.18 280.94 153.63 280.94 153.1 282.49"/><rect class="cls-6" x="139.76" y="278.41" width="14.29" height="2.53"/><path class="cls-6" d="M179.42,263.67H168.25v15.49h11.17V263.67Z"/><rect class="cls-2" x="169.97" y="265.75" width="7.76" height="11.05"/><polygon class="cls-2" points="180.03 282.49 167.65 282.49 167.11 280.94 180.56 280.94 180.03 282.49"/><rect class="cls-6" x="166.69" y="278.41" width="14.29" height="2.53"/><rect class="cls-2" x="107.92" y="287.26" width="77.71" height="4.09"/><rect class="cls-12" x="107.39" y="205.88" width="78.75" height="5.05"/><path class="cls-12" d="M107.39,206.81h78.75c3.46,0,3.46-6.46,0-6.46H107.39c-3.46,0-3.46,6.46,0,6.46Z"/><path class="cls-2" d="M188.28,204c0-1.6-.85-3.19-2.56-3.19H107.83c-1.67,0-2.52,1.52-2.56,3.08Z"/><polyline class="cls-24" points="193.17 258.27 193.17 256.3 205.25 256.3 205.25 258.27"/><path class="cls-6" d="M205.25,255.38H193.17V238.79h12.08Z"/><rect class="cls-6" x="192.58" y="254.32" width="13.26" height="1.97"/><rect class="cls-2" x="194.61" y="240.36" width="9.22" height="12.52"/><polyline class="cls-24" points="217.17 258.27 217.17 256.3 229.25 256.3 229.25 258.27"/><path class="cls-6" d="M229.25,255.38H217.17V238.79h12.08Z"/><rect class="cls-6" x="216.58" y="254.32" width="13.26" height="1.97"/><rect class="cls-2" x="218.61" y="240.36" width="9.22" height="12.52"/><polyline class="cls-24" points="241.17 258.27 241.17 256.3 253.25 256.3 253.25 258.27"/><path class="cls-6" d="M253.25,255.38H241.17V238.79h12.08Z"/><rect class="cls-6" x="240.58" y="254.32" width="13.26" height="1.97"/><rect class="cls-2" x="242.61" y="240.36" width="9.22" height="12.52"/><polyline class="cls-24" points="193.17 282.51 193.17 280.54 205.25 280.54 205.25 282.51"/><path class="cls-6" d="M205.25,279.62H193.17V263h12.08Z"/><rect class="cls-6" x="192.58" y="278.56" width="13.26" height="1.97"/><rect class="cls-2" x="194.61" y="264.6" width="9.22" height="12.52"/><polyline class="cls-24" points="217.17 282.51 217.17 280.54 229.25 280.54 229.25 282.51"/><path class="cls-6" d="M229.25,279.62H217.17V263h12.08Z"/><rect class="cls-6" x="216.58" y="278.56" width="13.26" height="1.97"/><rect class="cls-2" x="218.61" y="264.6" width="9.22" height="12.52"/><polyline class="cls-24" points="241.17 282.51 241.17 280.54 253.25 280.54 253.25 282.51"/><path class="cls-6" d="M253.25,279.62H241.17V263h12.08Z"/><rect class="cls-6" x="240.58" y="278.56" width="13.26" height="1.97"/><rect class="cls-2" x="242.61" y="264.6" width="9.22" height="12.52"/><rect class="cls-22" x="186.26" y="217.49" width="3.9" height="124.92"/><rect class="cls-22" x="256.24" y="217.92" width="3.9" height="124.49"/><path class="cls-2" d="M265.1,298.33v28.51h16.84V298.33Zm1.84,2h4.18v24.2h-4.18Zm13.17,24.2H276v-24.2h4.15Z"/><rect class="cls-19" x="265.1" y="326.86" width="16.84" height="2.22"/><rect class="cls-6" x="265.1" y="324.62" width="16.84" height="2.22"/><path class="cls-2" d="M315.25,298.33v28.51h16.84V298.33Zm1.84,2h4.18v24.2h-4.18Zm13.17,24.2H326.1v-24.2h4.15Z"/><rect class="cls-19" x="315.25" y="326.86" width="16.84" height="2.22"/><rect class="cls-6" x="315.25" y="324.62" width="16.84" height="2.22"/><path class="cls-2" d="M265.21,212.52v18.54h16.84V212.52Zm1.84,2h4.18v14.22h-4.18Zm13.17,14.22h-4.15V214.56h4.15Z"/><rect class="cls-19" x="265.21" y="231.07" width="16.84" height="2.22"/><rect class="cls-6" x="265.21" y="228.84" width="16.84" height="2.22"/><path class="cls-2" d="M289.93,212.52v18.54h16.84V212.52Zm1.84,2h4.18v14.22h-4.18Zm13.17,14.22h-4.15V214.56h4.15Z"/><rect class="cls-19" x="289.93" y="231.07" width="16.84" height="2.22"/><rect class="cls-6" x="289.93" y="228.84" width="16.84" height="2.22"/><path class="cls-2" d="M314.66,212.52v18.54h16.84V212.52Zm1.84,2h4.18v14.22H316.5Zm13.17,14.22h-4.15V214.56h4.15Z"/><rect class="cls-19" x="314.66" y="231.07" width="16.84" height="2.22"/><rect class="cls-6" x="314.66" y="228.84" width="16.84" height="2.22"/><path class="cls-2" d="M265.21,240.44V259h16.84V240.44Zm1.84,2h4.18V256.7h-4.18Zm13.17,14.22h-4.15V242.48h4.15Z"/><rect class="cls-19" x="265.21" y="259" width="16.84" height="2.22"/><rect class="cls-6" x="265.21" y="256.76" width="16.84" height="2.22"/><path class="cls-2" d="M289.93,240.44V259h16.84V240.44Zm1.84,2h4.18V256.7h-4.18Zm13.17,14.22h-4.15V242.48h4.15Z"/><rect class="cls-19" x="289.93" y="259" width="16.84" height="2.22"/><rect class="cls-6" x="289.93" y="256.76" width="16.84" height="2.22"/><path class="cls-2" d="M314.66,240.44V259h16.84V240.44Zm1.84,2h4.18V256.7H316.5Zm13.17,14.22h-4.15V242.48h4.15Z"/><rect class="cls-19" x="314.66" y="259" width="16.84" height="2.22"/><rect class="cls-6" x="314.66" y="256.76" width="16.84" height="2.22"/><path class="cls-2" d="M265.21,268.36V286.9h16.84V268.36Zm1.84,2h4.18v14.22h-4.18Zm13.17,14.22h-4.15V270.4h4.15Z"/><rect class="cls-19" x="265.21" y="286.92" width="16.84" height="2.22"/><rect class="cls-6" x="265.21" y="284.68" width="16.84" height="2.22"/><path class="cls-2" d="M289.93,268.36V286.9h16.84V268.36Zm1.84,2h4.18v14.22h-4.18Zm13.17,14.22h-4.15V270.4h4.15Z"/><rect class="cls-19" x="289.93" y="286.92" width="16.84" height="2.22"/><rect class="cls-6" x="289.93" y="284.68" width="16.84" height="2.22"/><path class="cls-2" d="M314.66,268.36V286.9h16.84V268.36Zm1.84,2h4.18v14.22H316.5Zm13.17,14.22h-4.15V270.4h4.15Z"/><rect class="cls-19" x="314.66" y="286.92" width="16.84" height="2.22"/><rect class="cls-6" x="314.66" y="284.68" width="16.84" height="2.22"/><polygon class="cls-2" points="125.99 217.07 113.95 217.07 113.95 216.56 119.97 214.86 125.99 216.56 125.99 217.07"/><polygon class="cls-2" points="152.93 217.07 140.88 217.07 140.88 216.56 146.9 214.86 152.93 216.56 152.93 217.07"/><polygon class="cls-2" points="179.86 217.07 167.81 217.07 167.81 216.56 173.84 214.86 179.86 216.56 179.86 217.07"/><rect class="cls-2" x="214.39" y="100.47" width="84.12" height="9.98"/><rect class="cls-3" x="209.16" y="96.67" width="84.12" height="9.98"/><rect class="cls-2" x="214.39" y="119.48" width="84.12" height="9.98"/><rect class="cls-3" x="209.16" y="115.67" width="84.12" height="9.98"/><line class="cls-3" x1="149.75" y1="144.19" x2="294.23" y2="144.19"/><line class="cls-3" x1="149.75" y1="148.47" x2="294.23" y2="148.47"/><path class="cls-30" d="M72.92,339.75v2.15h7.16v-2.15a.72.72,0,0,0-.72-.72H73.64A.72.72,0,0,0,72.92,339.75Z"/><rect class="cls-30" x="74.35" y="304.68" width="4.29" height="34.35"/><circle class="cls-30" cx="76.5" cy="302.54" r="2.15"/><line class="cls-30" x1="79.36" y1="304.68" x2="73.64" y2="304.68"/><polygon class="cls-30" points="58.61 307.55 74.35 307.55 74.35 316.13 58.61 316.13 55.74 311.84 58.61 307.55"/><line class="cls-30" x1="66.48" y1="310.41" x2="71.49" y2="310.41"/><line class="cls-30" x1="60.75" y1="313.27" x2="71.49" y2="313.27"/><polygon class="cls-30" points="94.39 307.55 78.65 307.55 78.65 316.13 94.39 316.13 97.25 311.84 94.39 307.55"/><line class="cls-30" x1="86.52" y1="310.41" x2="81.51" y2="310.41"/><line class="cls-30" x1="92.24" y1="313.27" x2="81.51" y2="313.27"/><line class="cls-30" x1="78.65" y1="308.98" x2="74.35" y2="308.98"/><line class="cls-30" x1="78.65" y1="314.7" x2="74.35" y2="314.7"/><g id="_Group_" data-name="&lt;Group&gt;"><circle id="_Path_" data-name="&lt;Path&gt;" class="cls-31" cx="371.64" cy="312.07" r="16.06"/><line id="_Path_2" data-name="&lt;Path&gt;" class="cls-32" x1="364.76" y1="341.9" x2="364.76" y2="316.41"/><circle id="_Path_3" data-name="&lt;Path&gt;" class="cls-32" cx="376.23" cy="305.19" r="16.06"/><line id="_Path_4" data-name="&lt;Path&gt;" class="cls-32" x1="376.23" y1="305.19" x2="376.23" y2="341.9"/><path id="_Path_5" data-name="&lt;Path&gt;" class="cls-32" d="M383.11,305.19a6.88,6.88,0,0,1-13.77,0"/></g><g class="cls-33"><path class="cls-2" d="M133.75,292.75H125v20.56c0,1.51,1.55,2.74,3.45,2.74h1.86c1.91,0,3.45-1.23,3.45-2.74v0c0,1.51,1.55,2.74,3.45,2.74h1.86c1.91,0,3.45-1.23,3.45-2.74l3.41-20.56H133.75Z"/><path class="cls-2" d="M116.22,292.71h-8.76v20.56c0,1.51,1.55,2.74,3.45,2.74h1.86c1.91,0,3.45-1.23,3.45-2.74v0c0,1.51,1.55,2.74,3.45,2.74h1.86c1.91,0,3.45-1.23,3.45-2.74V292.75h-8.76Z"/><path class="cls-2" d="M177.32,292.63v.08h-26.1v0h-8.6v20.56c0,1.51,1.55,2.74,3.45,2.74h1.86a3.36,3.36,0,0,0,3.38-2.16,3.38,3.38,0,0,0,3.36,2.12h1.86c1.91,0,3.45-1.23,3.45-2.74,0,1.51,1.55,2.74,3.45,2.74h1.86a3.34,3.34,0,0,0,3.39-2.21,3.34,3.34,0,0,0,3.39,2.21h1.86a3.26,3.26,0,0,0,3.43-2.44,3.29,3.29,0,0,0,3.41,2.36h1.86c1.91,0,3.45-1.23,3.45-2.74V292.63Z"/></g><path class="cls-2" d="M124.83,291.51l-2.29,14.07c-.27,1.65,1.25,3,3.4,3H128c2.15,0,4-1.37,4.19-3l1.37-14.07Z"/><path class="cls-25" d="M133.74,291.48l-1.37,14.06c-.16,1.65,1.45,3,3.6,3h2.1c2.15,0,3.94-1.37,4-3l.45-14.06Z"/><path class="cls-2" d="M107,291.48l-4.13,14.06c-.48,1.65.86,3,3,3H108c2.15,0,4.21-1.37,4.58-3l3.21-14.06Z"/><path class="cls-25" d="M115.93,291.51l-3.21,14.07c-.38,1.65,1.06,3,3.21,3H118c2.15,0,4.12-1.37,4.39-3l2.29-14.07Z"/><path class="cls-2" d="M160,291.48l1.39,14.06c.16,1.65,2,3,4.19,3h2.1c2.15,0,3.67-1.37,3.4-3l-2.31-14.06Z"/><path class="cls-25" d="M168.92,291.48l2.29,14.06c.27,1.65,2.24,3,4.39,3h2.1c2.15,0,3.58-1.37,3.2-3l-3.21-14.06Z"/><path class="cls-2" d="M142.4,291.51,142,305.58c-.05,1.65,1.65,3,3.8,3h2.1c2.15,0,3.85-1.37,3.79-3l-.49-14.07Z"/><path class="cls-25" d="M151.11,291.48l.47,14.06c.05,1.65,1.84,3,4,3h2.1c2.15,0,3.76-1.37,3.6-3l-1.39-14.06Z"/><path class="cls-2" d="M177.83,291.4l3.2,14c.38,1.65,2.43,3,4.58,3h2.1c2.15,0,3.49-1.36,3-3l-4.12-14Z"/><g id="_Group_2" data-name="&lt;Group&gt;"><polygon id="_Path_6" data-name="&lt;Path&gt;" class="cls-2" points="161.64 98.4 170.92 93.25 180.2 98.4 180.2 108.71 170.92 113.86 161.64 108.71 161.64 98.4"/><polyline id="_Path_7" data-name="&lt;Path&gt;" class="cls-9" points="172.87 100.4 172.87 109.84 181.68 104.92 181.75 95.68 172.87 100.4"/><polygon id="_Path_8" data-name="&lt;Path&gt;" class="cls-34" points="163.02 94.97 172.29 89.81 181.57 94.97 181.57 105.27 172.29 110.43 163.02 105.27 163.02 94.97"/><line id="_Path_9" data-name="&lt;Path&gt;" class="cls-34" x1="172.3" y1="110.43" x2="172.3" y2="100.12"/><polyline id="_Path_10" data-name="&lt;Path&gt;" class="cls-34" points="181.57 94.97 172.29 100.12 163.02 94.97"/><polygon id="_Path_11" data-name="&lt;Path&gt;" class="cls-34" points="175.04 114.89 184.32 109.74 193.6 114.89 193.6 125.2 184.32 130.36 175.04 125.2 175.04 114.89"/><polyline id="_Path_12" data-name="&lt;Path&gt;" class="cls-9" points="184.32 120.39 184.32 129.82 193.14 124.91 193.21 115.67 184.32 120.39"/><polyline id="_Path_13" data-name="&lt;Path&gt;" class="cls-9" points="160.29 120.39 160.29 129.82 169.11 124.91 169.18 115.67 160.29 120.39"/><polyline id="_Path_14" data-name="&lt;Path&gt;" class="cls-34" points="193.6 114.89 184.32 120.05 175.04 114.89"/><polygon id="_Path_15" data-name="&lt;Path&gt;" class="cls-34" points="150.99 114.89 160.27 109.74 169.55 114.89 169.55 125.2 160.27 130.36 150.99 125.2 150.99 114.89"/><line id="_Path_16" data-name="&lt;Path&gt;" class="cls-34" x1="160.27" y1="130.36" x2="160.27" y2="120.05"/><polyline id="_Path_17" data-name="&lt;Path&gt;" class="cls-34" points="169.55 114.89 160.27 120.05 150.99 114.89"/><line id="_Path_18" data-name="&lt;Path&gt;" class="cls-35" x1="172.3" y1="113.18" x2="172.3" y2="113.18"/><line id="_Path_19" data-name="&lt;Path&gt;" class="cls-35" x1="169.55" y1="111.8" x2="169.55" y2="111.8"/><line id="_Path_20" data-name="&lt;Path&gt;" class="cls-35" x1="166.8" y1="110.43" x2="166.8" y2="110.43"/><line id="_Path_21" data-name="&lt;Path&gt;" class="cls-35" x1="164.05" y1="109.05" x2="164.05" y2="109.05"/><line id="_Path_22" data-name="&lt;Path&gt;" class="cls-35" x1="161.3" y1="107.68" x2="161.3" y2="107.68"/><line id="_Path_23" data-name="&lt;Path&gt;" class="cls-35" x1="158.55" y1="106.3" x2="158.55" y2="106.3"/><line id="_Path_24" data-name="&lt;Path&gt;" class="cls-35" x1="155.8" y1="104.93" x2="155.8" y2="104.93"/><line id="_Path_25" data-name="&lt;Path&gt;" class="cls-35" x1="175.04" y1="111.8" x2="175.04" y2="111.8"/><line id="_Path_26" data-name="&lt;Path&gt;" class="cls-35" x1="180.54" y1="109.05" x2="180.54" y2="109.05"/><line id="_Path_27" data-name="&lt;Path&gt;" class="cls-35" x1="177.79" y1="110.43" x2="177.79" y2="110.43"/><line id="_Path_28" data-name="&lt;Path&gt;" class="cls-35" x1="183.29" y1="107.68" x2="183.29" y2="107.68"/><line id="_Path_29" data-name="&lt;Path&gt;" class="cls-35" x1="186.04" y1="106.3" x2="186.04" y2="106.3"/><line id="_Path_30" data-name="&lt;Path&gt;" class="cls-35" x1="172.3" y1="115.93" x2="172.3" y2="115.93"/><line id="_Path_31" data-name="&lt;Path&gt;" class="cls-35" x1="172.3" y1="118.68" x2="172.3" y2="118.68"/><line id="_Path_32" data-name="&lt;Path&gt;" class="cls-35" x1="172.3" y1="121.42" x2="172.3" y2="121.42"/><line id="_Path_33" data-name="&lt;Path&gt;" class="cls-35" x1="172.3" y1="124.17" x2="172.3" y2="124.17"/><line id="_Path_34" data-name="&lt;Path&gt;" class="cls-35" x1="172.3" y1="126.92" x2="172.3" y2="126.92"/><line id="_Path_35" data-name="&lt;Path&gt;" class="cls-35" x1="172.3" y1="129.67" x2="172.3" y2="129.67"/><line id="_Path_36" data-name="&lt;Path&gt;" class="cls-34" x1="184.32" y1="130.36" x2="184.32" y2="120.05"/></g><path class="cls-2" d="M390.6,76.31a2,2,0,0,1,.93.16,4.36,4.36,0,0,1-.16-1.41,7.14,7.14,0,1,1,14.28,0v.16a4.55,4.55,0,0,1,1.55-.31,3.76,3.76,0,0,1,0,7.51H390.6a3,3,0,0,1-2.95-3,3.1,3.1,0,0,1,2.95-3.13"/><path class="cls-3" d="M387,73.62a2,2,0,0,1,.93.16,4.36,4.36,0,0,1-.16-1.41,7.14,7.14,0,1,1,14.28,0v.16a4.55,4.55,0,0,1,1.55-.31,3.76,3.76,0,0,1,0,7.51H387a3,3,0,0,1-2.95-3A3.1,3.1,0,0,1,387,73.62"/></g></g></svg>