<svg id="Layer_1" data-name="Layer 1" xmlns="http://www.w3.org/2000/svg" viewBox="0 0 49.25 63.17"><defs><style>.cls-1{fill:#cceaff;}.cls-2,.cls-3{fill:none;}.cls-2{stroke:#f48024;}.cls-2,.cls-3,.cls-4{stroke-miterlimit:10;}.cls-3{stroke:#4c8dbd;}.cls-4{fill:#f48024;stroke:#fff;}</style></defs><title>ad_sales_icons</title><g id="_Group_" data-name="&lt;Group&gt;"><path id="_Path_" data-name="&lt;Path&gt;" class="cls-1" d="M25,19.14A21,21,0,0,0,7.12,29.25a20.89,20.89,0,0,0,35.79,0A21,21,0,0,0,25,19.14Z"/><line id="_Path_2" data-name="&lt;Path&gt;" class="cls-2" x1="24.24" y1="7.46" x2="24.24" y2="10.58"/><line id="_Path_3" data-name="&lt;Path&gt;" class="cls-2" x1="24.24" y1="52.59" x2="24.24" y2="55.7"/><line id="_Path_4" data-name="&lt;Path&gt;" class="cls-2" x1="48.36" y1="31.58" x2="45.25" y2="31.58"/><line id="_Path_5" data-name="&lt;Path&gt;" class="cls-2" x1="3.61" y1="31.58" x2="0.5" y2="31.58"/><line id="_Path_6" data-name="&lt;Path&gt;" class="cls-2" x1="41.3" y1="14.53" x2="39.1" y2="16.73"/><line id="_Path_7" data-name="&lt;Path&gt;" class="cls-2" x1="9.39" y1="46.44" x2="7.18" y2="48.64"/><line id="_Path_8" data-name="&lt;Path&gt;" class="cls-2" x1="41.3" y1="48.64" x2="39.1" y2="46.44"/><line id="_Path_9" data-name="&lt;Path&gt;" class="cls-2" x1="9.39" y1="16.73" x2="7.18" y2="14.53"/><line id="_Path_10" data-name="&lt;Path&gt;" class="cls-2" x1="33.47" y1="9.3" x2="32.28" y2="12.18"/><line id="_Path_11" data-name="&lt;Path&gt;" class="cls-2" x1="16.2" y1="50.99" x2="15.01" y2="53.87"/><line id="_Path_12" data-name="&lt;Path&gt;" class="cls-2" x1="46.52" y1="40.82" x2="43.65" y2="39.62"/><line id="_Path_13" data-name="&lt;Path&gt;" class="cls-2" x1="4.83" y1="23.55" x2="1.96" y2="22.35"/><line id="_Path_14" data-name="&lt;Path&gt;" class="cls-2" x1="46.52" y1="22.35" x2="43.65" y2="23.55"/><line id="_Path_15" data-name="&lt;Path&gt;" class="cls-2" x1="4.83" y1="39.62" x2="1.96" y2="40.82"/><line id="_Path_16" data-name="&lt;Path&gt;" class="cls-2" x1="33.47" y1="53.87" x2="32.28" y2="50.99"/><line id="_Path_17" data-name="&lt;Path&gt;" class="cls-2" x1="16.2" y1="12.18" x2="15.01" y2="9.3"/><path id="_Path_18" data-name="&lt;Path&gt;" class="cls-3" d="M17.31,16.14a27.35,27.35,0,0,1,13.86,0"/><path id="_Path_19" data-name="&lt;Path&gt;" class="cls-3" d="M31.17,47a27.35,27.35,0,0,1-13.86,0"/><path id="_Path_20" data-name="&lt;Path&gt;" class="cls-3" d="M30.37,44a24.18,24.18,0,0,1-12.27,0,23.76,23.76,0,0,1-5.63-2.29"/><path id="_Path_21" data-name="&lt;Path&gt;" class="cls-3" d="M36,41.74A23.76,23.76,0,0,1,30.37,44"/><path id="_Path_22" data-name="&lt;Path&gt;" class="cls-3" d="M36,21.43a23.76,23.76,0,0,0-5.63-2.29,24.18,24.18,0,0,0-12.27,0,23.76,23.76,0,0,0-5.63,2.29"/><path id="_Path_23" data-name="&lt;Path&gt;" class="cls-3" d="M24.24,21.47A21,21,0,0,0,6.34,31.58a20.89,20.89,0,0,0,35.79,0A21,21,0,0,0,24.24,21.47Z"/><path id="_Path_24" data-name="&lt;Path&gt;" class="cls-3" d="M10.12,31.58q.32-.41.66-.81t.7-.76q.36-.37.73-.72"/><circle id="_Path_25" data-name="&lt;Path&gt;" class="cls-3" cx="24.24" cy="31.58" r="7"/><circle id="_Path_26" data-name="&lt;Path&gt;" class="cls-4" cx="24.24" cy="31.58" r="2.33"/></g></svg>